<?xml version="1.0" standalone="no"?>
<!DOCTYPE svg PUBLIC "-//W3C//DTD SVG 20010904//EN"
 "http://www.w3.org/TR/2001/REC-SVG-20010904/DTD/svg10.dtd">
<svg version="1.0" xmlns="http://www.w3.org/2000/svg"
 width="500.000000pt" height="500.000000pt" viewBox="0 0 500.000000 500.000000"
 preserveAspectRatio="xMidYMid meet">

<g transform="translate(0.000000,500.000000) scale(0.100000,-0.100000)"
fill="#000000" stroke="none">
<path d="M3183 3273 c-7 -2 -13 -15 -13 -28 0 -25 64 -127 111 -180 32 -35 47
-54 108 -133 24 -31 61 -70 81 -87 52 -42 57 -51 80 -165 20 -96 21 -104 5
-188 -9 -48 -22 -104 -30 -124 -8 -21 -19 -99 -25 -175 -8 -92 -19 -165 -36
-218 -25 -84 -30 -120 -15 -129 15 -10 -1 -56 -28 -77 l-26 -21 -5 369 -5 368
-84 0 -84 0 -19 -33 c-10 -19 -41 -78 -69 -133 -28 -55 -54 -97 -59 -94 -5 3
-22 31 -38 63 -16 31 -48 89 -70 127 l-40 70 -83 0 -84 0 -3 -387 -2 -388 95
0 95 0 0 190 c0 117 4 190 10 190 5 0 18 -17 28 -37 41 -82 87 -163 93 -163 3
0 29 43 58 95 29 52 56 97 62 100 5 4 10 -56 11 -152 1 -189 2 -211 8 -216 11
-9 279 -17 284 -8 4 5 9 31 12 58 4 26 15 57 24 68 21 24 50 120 50 167 0 18
7 47 16 63 8 17 29 71 45 121 34 108 49 126 73 90 9 -14 16 -28 16 -32 0 -3
20 -41 43 -83 32 -56 46 -94 51 -137 19 -165 23 -184 40 -184 17 0 26 -31 26
-86 0 -28 5 -44 15 -48 8 -3 73 -3 145 1 l130 6 1 136 c1 197 3 224 15 228 6
2 25 -22 42 -54 16 -32 42 -80 56 -107 22 -41 26 -62 26 -127 l0 -79 96 0 95
0 -2 153 -3 153 43 40 43 40 -46 49 -47 50 7 73 c3 39 3 106 -1 147 l-7 75
-89 0 -89 0 0 -115 c0 -63 -3 -115 -8 -115 -9 0 -24 24 -70 110 -67 125 -62
121 -155 118 l-82 -3 -3 -367 c-1 -203 -6 -368 -11 -368 -4 0 -16 9 -26 20
-13 14 -16 28 -11 57 10 58 9 62 -12 143 -11 41 -22 102 -26 135 -8 70 -32
164 -76 290 l-31 90 12 145 c7 87 17 154 26 168 7 12 37 36 67 52 33 19 94 74
162 146 60 64 115 122 121 129 25 26 33 62 18 81 -20 28 -48 6 -56 -42 -5 -29
-17 -48 -50 -76 -24 -21 -49 -38 -55 -38 -6 0 -21 -12 -35 -26 -13 -15 -44
-36 -69 -47 -25 -11 -52 -25 -60 -32 -14 -12 -134 -55 -153 -55 -4 0 -5 19 -2
43 5 29 2 55 -9 80 -14 34 -18 37 -54 37 -55 0 -66 -17 -59 -90 4 -34 3 -60
-2 -60 -19 0 -117 54 -153 84 -94 78 -218 208 -218 229 0 58 -18 76 -57 60z"/>
<path d="M510 2337 l0 -153 -40 -39 c-22 -21 -40 -43 -40 -48 0 -5 18 -26 40
-48 l40 -40 0 -149 0 -150 200 0 201 0 -3 78 -3 77 -102 3 -103 3 0 309 0 310
-95 0 -95 0 0 -153z"/>
<path d="M970 2100 l0 -390 95 0 95 0 0 390 0 390 -95 0 -95 0 0 -390z"/>
<path d="M1230 2101 l0 -391 175 0 174 0 33 28 c18 16 45 39 61 52 l27 24 0
281 0 282 -57 54 -58 54 -177 3 -178 3 0 -390z m275 -1 l0 -225 -42 -3 -43 -3
0 224 c0 123 3 227 7 231 4 4 23 6 43 4 l35 -3 0 -225z"/>
<path d="M1766 2378 c-5 -83 -2 -646 3 -665 1 -2 87 -3 191 -3 l190 0 0 80 0
80 -95 0 -95 0 0 80 0 79 78 3 77 3 0 75 0 75 -78 3 -78 3 3 67 3 67 93 3 93
3 -3 77 -3 77 -186 3 -187 2 -6 -112z"/>
<path d="M2220 2101 l0 -391 95 0 95 0 0 161 0 160 43 -3 42 -3 3 -157 3 -158
94 0 95 0 0 164 0 164 -35 26 c-19 15 -35 32 -35 38 0 6 14 26 31 46 31 35 31
35 27 137 -3 100 -4 104 -31 126 -16 12 -40 34 -53 48 -24 26 -25 26 -199 29
l-175 3 0 -390z m278 161 c4 -75 -8 -94 -52 -90 -31 3 -31 4 -34 67 -4 85 0
93 45 89 l38 -3 3 -63z"/>
</g>
</svg>
